<?xml version="1.0" encoding="UTF-8"?>
<svg width="748px" height="131px" viewBox="0 0 748 131" version="1.1" xmlns="http://www.w3.org/2000/svg" xmlns:xlink="http://www.w3.org/1999/xlink">
    <!-- Generator: Sketch 47.1 (45422) - http://www.bohemiancoding.com/sketch -->
    <title>Ikea_logo</title>
    <desc>Created with Sketch.</desc>
    <defs></defs>
    <g id="Page-1" stroke="none" stroke-width="1" fill="none" fill-rule="evenodd">
        <g id="Ikea_logo" fill-rule="nonzero" fill="#FFC240">
            <polygon id="polygon53" points="83.8759216 123.747305 84.6294047 127.715085 86.0122014 130.096881 0.939161462 129.868297 1.94098357 127.446991 2.24576325 123.403017 2.24576325 7.10981337 1.90147509 3.68668601 0.905297052 1.86929605 86.0460658 1.86929605 84.6294047 3.73748262 83.909786 7.45410153"></polygon>
            <path d="M239.296628,129.868297 C239.296628,129.868297 241.023713,128.372619 241.255119,127.446991 C241.901365,124.435881 240.820526,121.512254 240.820526,121.512254 L213.898321,79.0716829 L213.898321,78.7979456 L214.016846,123.405839 L214.784439,126.944669 L216.246253,128.863653 L131.128061,128.863653 L132.530612,126.944669 L133.26434,123.151856 L133.230476,6.98564387 L132.488281,3.62177923 L131.097018,1.86929605 L216.249075,1.86929605 L214.821126,3.73748262 L214.087397,7.45410153 L214.0366,49.0847486 L244.878611,8.72966095 C244.878611,8.72966095 245.516391,7.14932185 245.516391,4.87194033 C245.516391,3.43834701 244.11384,1.10170277 244.11384,1.10170277 L328.859524,1.19765193 L291.984004,53.6366896 L336.425397,124.656 L339.752576,127.207119 L343.536923,128.860831 L239.296628,128.860831 L239.296628,129.868297 L239.296628,129.868297 Z" id="path43"></path>
            <polygon id="polygon63" points="489.642095 48.7291723 493.511103 48.0236638 495.881612 46.635223 495.813883 82.5343188 493.324849 81.0781492 489.642095 80.3528864 442.483083 80.4065051 442.483083 92.1743873 504.057045 92.1743873 508.394511 91.3108448 510.527969 89.6655989 510.669071 130.175898 361.504814 129.885229 362.870679 127.463924 363.466128 123.408661 363.466128 7.10981337 362.836814 3.07148258 361.397577 0.61631291 510.067978 0.895694286 510.183681 39.8679852 507.765198 38.8407648 503.718401 38.5557394 442.483083 38.5557394 442.483083 48.9097825"></polygon>
            <path d="M631.415444,55.5500287 L621.405689,78.0642168 L641.456241,78.0642168 L631.415444,55.5500287 Z M580.192703,7.29042356 C580.192703,7.29042356 580.824839,5.01586407 580.553923,3.20411818 C580.308406,1.43188076 579.128796,0.754592581 579.128796,0.754592581 L694.50766,0.78845699 C694.50766,0.78845699 693.319584,1.43188076 693.071245,3.24644869 C692.811618,5.01586407 693.440931,7.32146593 693.440931,7.32146593 L743.81424,125.330466 L745.417155,127.842076 L747.635274,129.871119 L656.517437,130.029153 C656.517437,130.029153 657.914344,127.082949 657.77042,125.855364 C657.626497,124.548762 657.174971,122.864008 657.174971,122.864008 L651.257166,106.284558 L611.596298,106.284558 L605.111264,122.861186 C605.111264,122.861186 604.496061,123.00511 604.496061,124.280669 C604.496061,126.764059 605.988917,128.860831 605.988917,128.860831 L532.511615,128.860831 C532.511615,128.860831 535.040157,127.86183 536.437064,124.805568 C537.577166,122.389906 537.357047,122.531008 537.357047,122.531008 L580.192703,7.29042356 Z" id="path73"></path>
        </g>
    </g>
</svg>